<svg xmlns="http://www.w3.org/2000/svg" viewBox="0 0 128 128" width="128" height="128">
  <defs>
    <radialGradient id="glow">
      <stop offset="0%" style="stop-color:#f97316;stop-opacity:0.8"/>
      <stop offset="100%" style="stop-color:#f97316;stop-opacity:0"/>
    </radialGradient>
    <linearGradient id="starGradient" x1="0%" y1="0%" x2="100%" y2="100%">
      <stop offset="0%" style="stop-color:#fbbf24"/>
      <stop offset="100%" style="stop-color:#f97316"/>
    </linearGradient>
  </defs>
  
  <!-- Small background stars -->
  <circle cx="30" cy="20" r="1" fill="#94a3b8" opacity="0.6"/>
  <circle cx="50" cy="15" r="0.8" fill="#94a3b8" opacity="0.5"/>
  <circle cx="110" cy="25" r="0.8" fill="#94a3b8" opacity="0.6"/>
  <circle cx="25" cy="45" r="0.7" fill="#94a3b8" opacity="0.5"/>
  <circle cx="115" cy="90" r="1" fill="#94a3b8" opacity="0.6"/>
  <circle cx="100" cy="105" r="0.8" fill="#94a3b8" opacity="0.5"/>
  
  <!-- GitHub Stars with Octocat inside -->
  
  <!-- Large star #1 -->
  <g transform="translate(90, 35)">
    <circle r="22" fill="url(#glow)" opacity="0.4"/>
    <path d="M 0,-14 L 4.1,-4.3 L 14.5,-4.3 L 6.7,2 L 10,11.4 L 0,5 L -10,11.4 L -6.7,2 L -14.5,-4.3 L -4.1,-4.3 Z" 
          fill="url(#starGradient)" stroke="#fbbf24" stroke-width="1.5"/>
    <!-- Octocat inside -->
    <g transform="scale(0.35)" fill="#fff">
      <!-- Head -->
      <circle cx="0" cy="0" r="10"/>
      <!-- Ears -->
      <path d="M -7,-8 L -10,-14 L -5,-10 Z"/>
      <path d="M 7,-8 L 10,-14 L 5,-10 Z"/>
      <!-- Eyes -->
      <circle cx="-3" cy="-1" r="2" fill="#1e293b"/>
      <circle cx="3" cy="-1" r="2" fill="#1e293b"/>
      <!-- Nose -->
      <circle cx="0" cy="2" r="1" fill="#1e293b"/>
      <!-- Tentacles -->
      <path d="M -8,8 Q -10,12 -8,14" stroke="#fff" stroke-width="1.5" fill="none"/>
      <path d="M -3,9 Q -3,13 -2,15" stroke="#fff" stroke-width="1.5" fill="none"/>
      <path d="M 3,9 Q 3,13 2,15" stroke="#fff" stroke-width="1.5" fill="none"/>
      <path d="M 8,8 Q 10,12 8,14" stroke="#fff" stroke-width="1.5" fill="none"/>
    </g>
  </g>
  
  <!-- Large star #2 -->
  <g transform="translate(75, 65)">
    <circle r="18" fill="url(#glow)" opacity="0.35"/>
    <path d="M 0,-11 L 3.2,-3.4 L 11.4,-3.4 L 5.3,1.6 L 7.9,9 L 0,4 L -7.9,9 L -5.3,1.6 L -11.4,-3.4 L -3.2,-3.4 Z" 
          fill="url(#starGradient)" stroke="#fbbf24" stroke-width="1.3"/>
    <!-- Octocat inside -->
    <g transform="scale(0.28)" fill="#fff">
      <circle cx="0" cy="0" r="10"/>
      <path d="M -7,-8 L -10,-14 L -5,-10 Z"/>
      <path d="M 7,-8 L 10,-14 L 5,-10 Z"/>
      <circle cx="-3" cy="-1" r="2" fill="#1e293b"/>
      <circle cx="3" cy="-1" r="2" fill="#1e293b"/>
      <circle cx="0" cy="2" r="1" fill="#1e293b"/>
      <path d="M -8,8 Q -10,12 -8,14" stroke="#fff" stroke-width="1.5" fill="none"/>
      <path d="M -3,9 Q -3,13 -2,15" stroke="#fff" stroke-width="1.5" fill="none"/>
      <path d="M 3,9 Q 3,13 2,15" stroke="#fff" stroke-width="1.5" fill="none"/>
      <path d="M 8,8 Q 10,12 8,14" stroke="#fff" stroke-width="1.5" fill="none"/>
    </g>
  </g>
  
  <!-- Medium star #1 -->
  <g transform="translate(105, 60)">
    <circle r="14" fill="url(#glow)" opacity="0.3"/>
    <path d="M 0,-8.5 L 2.5,-2.6 L 8.8,-2.6 L 4.1,1.2 L 6.1,7 L 0,3.1 L -6.1,7 L -4.1,1.2 L -8.8,-2.6 L -2.5,-2.6 Z" 
          fill="url(#starGradient)" stroke="#fbbf24" stroke-width="1"/>
    <!-- Simplified Octocat -->
    <g transform="scale(0.22)" fill="#fff">
      <circle cx="0" cy="0" r="10"/>
      <path d="M -7,-8 L -10,-14 L -5,-10 Z"/>
      <path d="M 7,-8 L 10,-14 L 5,-10 Z"/>
      <circle cx="-3" cy="-1" r="2" fill="#1e293b"/>
      <circle cx="3" cy="-1" r="2" fill="#1e293b"/>
    </g>
  </g>
  
  <!-- Medium star #2 -->
  <g transform="translate(60, 25)">
    <circle r="12" fill="url(#glow)" opacity="0.3"/>
    <path d="M 0,-7 L 2,-2.2 L 7.2,-2.2 L 3.3,1 L 5,5.7 L 0,2.5 L -5,5.7 L -3.3,1 L -7.2,-2.2 L -2,-2.2 Z" 
          fill="url(#starGradient)" stroke="#fbbf24" stroke-width="0.9"/>
    <!-- Simplified Octocat -->
    <g transform="scale(0.18)" fill="#fff">
      <circle cx="0" cy="0" r="10"/>
      <path d="M -7,-8 L -10,-14 L -5,-10 Z"/>
      <path d="M 7,-8 L 10,-14 L 5,-10 Z"/>
      <circle cx="-3" cy="-1" r="2" fill="#1e293b"/>
      <circle cx="3" cy="-1" r="2" fill="#1e293b"/>
    </g>
  </g>
  
  <!-- Small stars with mini Octocat -->
  <g transform="translate(40, 30)">
    <circle r="8" fill="url(#glow)" opacity="0.25"/>
    <path d="M 0,-5 L 1.5,-1.5 L 5.2,-1.5 L 2.4,0.7 L 3.6,4.1 L 0,1.8 L -3.6,4.1 L -2.4,0.7 L -5.2,-1.5 L -1.5,-1.5 Z" 
          fill="url(#starGradient)" stroke="#fbbf24" stroke-width="0.7"/>
    <!-- Very small Octocat -->
    <circle cx="0" cy="0" r="2" fill="#fff"/>
    <circle cx="-0.8" cy="-0.3" r="0.5" fill="#1e293b"/>
    <circle cx="0.8" cy="-0.3" r="0.5" fill="#1e293b"/>
  </g>
  
  <g transform="translate(105, 92)">
    <circle r="7" fill="url(#glow)" opacity="0.25"/>
    <path d="M 0,-4.5 L 1.3,-1.4 L 4.7,-1.4 L 2.1,0.6 L 3.2,3.7 L 0,1.6 L -3.2,3.7 L -2.1,0.6 L -4.7,-1.4 L -1.3,-1.4 Z" 
          fill="url(#starGradient)" stroke="#fbbf24" stroke-width="0.7"/>
    <!-- Very small Octocat -->
    <circle cx="0" cy="0" r="1.8" fill="#fff"/>
    <circle cx="-0.7" cy="-0.3" r="0.4" fill="#1e293b"/>
    <circle cx="0.7" cy="-0.3" r="0.4" fill="#1e293b"/>
  </g>
  
  <g transform="translate(95, 25)">
    <circle r="6" fill="url(#glow)" opacity="0.2"/>
    <path d="M 0,-4 L 1.2,-1.2 L 4.1,-1.2 L 1.8,0.5 L 2.8,3.2 L 0,1.4 L -2.8,3.2 L -1.8,0.5 L -4.1,-1.2 L -1.2,-1.2 Z" 
          fill="url(#starGradient)" stroke="#fbbf24" stroke-width="0.6"/>
    <!-- Very small Octocat -->
    <circle cx="0" cy="0" r="1.5" fill="#fff"/>
    <circle cx="-0.6" cy="-0.2" r="0.3" fill="#1e293b"/>
    <circle cx="0.6" cy="-0.2" r="0.3" fill="#1e293b"/>
  </g>
  
  <!-- Tiny stars (just stars, no Octocat) -->
  <circle cx="70" cy="50" r="1.5" fill="#fbbf24" opacity="0.8"/>
  <circle cx="45" cy="55" r="1.2" fill="#f97316" opacity="0.7"/>
  <circle cx="85" cy="48" r="1" fill="#fbbf24" opacity="0.6"/>
  
  <!-- Telescope (WHITE) -->
  <g transform="translate(40, 90)">
    <!-- Tripod -->
    <line x1="-15" y1="20" x2="0" y2="8" stroke="#ffffff" stroke-width="2.5" opacity="0.9"/>
    <line x1="15" y1="20" x2="0" y2="8" stroke="#ffffff" stroke-width="2.5" opacity="0.9"/>
    <circle cx="-15" cy="20" r="2.5" fill="#ffffff" opacity="0.95"/>
    <circle cx="15" cy="20" r="2.5" fill="#ffffff" opacity="0.95"/>
    
    <!-- Mount -->
    <circle cx="0" cy="8" r="5" fill="#ffffff" stroke="#e2e8f0" stroke-width="1.5" opacity="0.95"/>
    
    <!-- Telescope tube -->
    <g transform="rotate(-50)">
      <rect x="3" y="-5" width="40" height="10" rx="2" 
            fill="#ffffff" stroke="#e2e8f0" stroke-width="1.5" opacity="0.95"/>
      <rect x="12" y="-5" width="2" height="10" fill="#cbd5e1" opacity="0.4"/>
      <rect x="30" y="-5" width="2" height="10" fill="#cbd5e1" opacity="0.4"/>
      
      <!-- Eyepiece -->
      <rect x="-3" y="-3.5" width="6" height="7" rx="1.5" fill="#f1f5f9" opacity="0.95"/>
      
      <!-- Lens -->
      <ellipse cx="43" cy="0" rx="3.5" ry="5" fill="#94a3b8" opacity="0.5"/>
      <ellipse cx="43" cy="0" rx="2.5" ry="3.5" fill="#ffffff" opacity="0.6"/>
    </g>
  </g>
  
  <!-- Aim lines to stars -->
  <line x1="60" y1="60" x2="85" y2="40" 
        stroke="#fbbf24" stroke-width="1" opacity="0.4" stroke-dasharray="3,3"/>
  <line x1="62" y1="58" x2="72" y2="62" 
        stroke="#f97316" stroke-width="0.8" opacity="0.3" stroke-dasharray="2,2"/>
</svg>